<?xml version="1.0" encoding="UTF-8" standalone="no"?> <svg xmlns="http://www.w3.org/2000/svg" xmlns:xlink="http://www.w3.org/1999/xlink" viewBox="0 0 64 64"><defs><style>.cls-1{fill:url(#linear-gradient);}.cls-2{fill:url(#linear-gradient-2);}.cls-3{fill:url(#linear-gradient-3);}.cls-4{fill:url(#linear-gradient-4);}</style><linearGradient id="linear-gradient" x1="22.37" y1="47.34" x2="41.63" y2="47.34" gradientUnits="userSpaceOnUse"><stop offset="0" stop-color="#17a6d7"/><stop offset="1" stop-color="#9d31fe"/></linearGradient><linearGradient id="linear-gradient-2" x1="17.5" y1="31.73" x2="29.1" y2="31.73" xlink:href="#linear-gradient"/><linearGradient id="linear-gradient-3" x1="34.9" y1="31.73" x2="46.5" y2="31.73" xlink:href="#linear-gradient"/><linearGradient id="linear-gradient-4" x1="2.19" y1="32" x2="61.81" y2="32" xlink:href="#linear-gradient"/></defs><g id="Layer_18" data-name="Layer 18"><path class="cls-1" d="M39.66,45.34H24.34a2,2,0,0,0,0,4H39.66A2,2,0,0,0,39.66,45.34Z"/><path class="cls-2" d="M29.1,35.91V27.55a2,2,0,0,0-2-2H19.5a2,2,0,0,0-2,2v8.36a2,2,0,0,0,2,2h7.6A2,2,0,0,0,29.1,35.91Zm-4-2H21.5V29.55h3.6Z"/><path class="cls-3" d="M44.5,25.55H36.9a2,2,0,0,0-2,2v8.36a2,2,0,0,0,2,2h7.6a2,2,0,0,0,2-2V27.55A2,2,0,0,0,44.5,25.55Zm-2,8.36H38.9V29.55h3.6Z"/><path class="cls-4" d="M59.81,31.85a2,2,0,0,0-2,2v2.76H55.39V17.21a2,2,0,0,0-2-2H34V13.65C40.25,11.41,38.73,2.06,32,2s-8.25,9.41-2,11.65v1.56H10.61a2,2,0,0,0-2,2v19.4H6.19V33.85a2,2,0,0,0-4,0v9.51a2,2,0,0,0,4,0V40.61H8.61V60a2,2,0,0,0,2,2H53.39a2,2,0,0,0,2-2V40.61h2.42v2.75a2,2,0,0,0,4,0V33.85A2,2,0,0,0,59.81,31.85ZM32,6a2,2,0,0,1,0,4A2,2,0,0,1,32,6ZM51.39,58H12.61V19.21H51.39Z"/></g></svg>